<?xml version="1.0" encoding="iso-8859-1"?>
<!-- Generator: Adobe Illustrator 19.0.0, SVG Export Plug-In . SVG Version: 6.00 Build 0)  -->
<svg version="1.1" id="Layer_1" xmlns="http://www.w3.org/2000/svg" xmlns:xlink="http://www.w3.org/1999/xlink" x="0px" y="0px"
	 viewBox="0 0 511.998 511.998" style="enable-background:new 0 0 511.998 511.998;" xml:space="preserve">
<g>
	<g>
		<path d="M483.34,289.199h-8.441V95.632c0-37.831-30.778-68.61-68.609-68.61c-37.831,0-68.61,30.779-68.61,68.61v22.932
			c-5.142,0.573-9.452,4.735-10.064,9.949l-2.948,25.013c-0.358,3.047,0.591,6.095,2.604,8.358c2.012,2.262,4.927,3.56,7.996,3.56
			h49.852c3.07,0,5.985-1.299,7.998-3.563c2.012-2.264,2.961-5.311,2.601-8.358l-2.945-25.009
			c-0.614-5.215-4.924-9.376-10.064-9.949V95.632c0-13.002,10.578-23.581,23.58-23.581c13.001,0,23.579,10.578,23.579,23.581
			v193.567H28.66C12.857,289.199,0,302.057,0,317.861c0,12.056,7.486,22.392,18.051,26.618
			c5.354,54.951,43.023,99.991,93.395,116.563l-5.487,12.579c-1.791,4.105,0.085,8.886,4.191,10.676
			c1.057,0.461,2.156,0.678,3.239,0.678c3.127,0,6.108-1.82,7.438-4.87l6.491-14.884c8.714,1.739,17.716,2.655,26.924,2.655h203.513
			c9.206,0,18.208-0.917,26.922-2.659l6.494,14.888c1.33,3.051,4.31,4.87,7.438,4.87c1.082,0,2.182-0.218,3.239-0.678
			c4.106-1.791,5.982-6.571,4.191-10.676l-5.49-12.588c50.353-16.579,88.042-61.626,93.398-116.555
			c10.565-4.226,18.051-14.561,18.051-26.618C512,302.057,499.143,289.199,483.34,289.199z M341.508,149.224l1.71-14.511h33.953
			l1.708,14.511H341.508z M406.289,55.831c-21.946,0-39.801,17.855-39.801,39.802v22.86h-12.589v-22.86
			c0-28.889,23.501-52.39,52.39-52.39c28.888,0,52.389,23.501,52.389,52.39v193.567h-12.589V95.632
			C446.089,73.686,428.236,55.831,406.289,55.831z M357.757,451.656H154.243c-61.077,0-112.023-45.509-119.647-105.133h442.805
			C469.772,406.131,418.791,451.656,357.757,451.656z M483.34,330.303H28.66c-6.859,0-12.44-5.581-12.44-12.442
			c0-6.86,5.581-12.441,12.44-12.441H483.34c6.859,0,12.44,5.581,12.44,12.441C495.78,324.722,490.199,330.303,483.34,330.303z"/>
	</g>
</g>
<g>
</g>
<g>
</g>
<g>
</g>
<g>
</g>
<g>
</g>
<g>
</g>
<g>
</g>
<g>
</g>
<g>
</g>
<g>
</g>
<g>
</g>
<g>
</g>
<g>
</g>
<g>
</g>
<g>
</g>
</svg>
