<?xml version="1.0" encoding="iso-8859-1"?>
<!-- Generator: Adobe Illustrator 18.0.0, SVG Export Plug-In . SVG Version: 6.00 Build 0)  -->
<!DOCTYPE svg PUBLIC "-//W3C//DTD SVG 1.1//EN" "http://www.w3.org/Graphics/SVG/1.1/DTD/svg11.dtd">
<svg version="1.1" id="Capa_1" xmlns="http://www.w3.org/2000/svg" xmlns:xlink="http://www.w3.org/1999/xlink" x="0px" y="0px"
	 viewBox="0 0 297 297" style="enable-background:new 0 0 297 297;" xml:space="preserve">
<g>
	<path d="M297,104.604c0-37.346-29.426-68.896-64.258-68.896c-1.773,0-3.57,0.08-5.347,0.24
		C194.551,38.91,101.264,58.721,97.307,59.563c-4.666,0.994-8.002,5.115-8.002,9.887v70.307c0,4.771,3.336,8.893,8.002,9.887
		c2.642,0.563,45.093,9.578,82.798,16.391l-42.026,80.475c-1.637,3.131-1.517,6.893,0.314,9.916
		c1.833,3.023,5.111,4.869,8.645,4.869h58.748c3.765,0,7.216-2.09,8.958-5.428l48.405-90.867
		C283.123,153.158,297,130.248,297,104.604z M229.211,56.082c1.175-0.105,2.363-0.16,3.531-0.16
		c23.872,0,44.043,22.293,44.043,48.682s-20.171,48.682-44.045,48.682c-1.167,0-2.355-0.055-3.529-0.16
		c-15.862-1.432-47.672-7.221-75.572-12.666V68.746C181.539,63.303,213.347,57.514,229.211,56.082z M109.52,77.654
		c5.71-1.189,14.099-2.92,23.901-4.896v63.689c-9.803-1.975-18.191-3.707-23.901-4.898V77.654z M199.661,241.078H163.72
		l37.304-71.432c10.458,1.703,19.675,3.008,26.373,3.611c1.775,0.162,3.573,0.242,5.344,0.242c0.752,0,1.498-0.035,2.245-0.063
		L199.661,241.078z"/>
	<path d="M69.644,129.307c-11.776,0-17.21-3.689-24.089-8.363c-7.777-5.279-17.455-11.854-35.447-11.854
		C4.525,109.09,0,113.617,0,119.197c0,5.584,4.525,10.109,10.107,10.109c11.776,0,17.211,3.689,24.089,8.361
		c7.777,5.283,17.455,11.855,35.447,11.855c5.581,0,10.107-4.527,10.107-10.109C79.751,133.832,75.225,129.307,69.644,129.307z"/>
	<path d="M69.644,99.537c-11.776,0-17.21-3.689-24.089-8.361C37.777,85.895,28.1,79.322,10.107,79.322
		C4.525,79.322,0,83.848,0,89.43c0,5.58,4.525,10.107,10.107,10.107c11.776,0,17.211,3.691,24.089,8.363
		c7.777,5.281,17.455,11.854,35.447,11.854c5.581,0,10.107-4.527,10.107-10.107C79.751,104.064,75.225,99.537,69.644,99.537z"/>
	<path d="M69.644,69.77c-11.776,0-17.21-3.689-24.089-8.363C37.777,56.127,28.1,49.553,10.107,49.553C4.525,49.553,0,54.08,0,59.66
		C0,65.244,4.525,69.77,10.107,69.77c11.776,0,17.211,3.689,24.089,8.361c7.777,5.283,17.455,11.854,35.447,11.854
		c5.581,0,10.107-4.525,10.107-10.107C79.751,74.295,75.225,69.77,69.644,69.77z"/>
</g>
<g>
</g>
<g>
</g>
<g>
</g>
<g>
</g>
<g>
</g>
<g>
</g>
<g>
</g>
<g>
</g>
<g>
</g>
<g>
</g>
<g>
</g>
<g>
</g>
<g>
</g>
<g>
</g>
<g>
</g>
</svg>
